<?xml version="1.0" encoding="utf-8"?>
<!-- Generator: Adobe Illustrator 24.1.3, SVG Export Plug-In . SVG Version: 6.00 Build 0)  -->
<svg version="1.1" id="Layer_1" xmlns="http://www.w3.org/2000/svg" xmlns:xlink="http://www.w3.org/1999/xlink" x="0px" y="0px"
	 viewBox="0 0 358.2 262.8" style="enable-background:new 0 0 358.2 262.8;" xml:space="preserve">
<style type="text/css">
	.st0{opacity:0.4;clip-path:url(#SVGID_2_);fill:#21A3A3;enable-background:new    ;}
	.st1{opacity:0.4;clip-path:url(#SVGID_4_);fill:#E99B53;enable-background:new    ;}
	.st2{opacity:0.4;clip-path:url(#SVGID_6_);fill:#FAE483;stroke:#FAE483;enable-background:new    ;}
	.st3{opacity:0.4;fill:#A05415;enable-background:new    ;}
	.st4{font-family:'MyriadPro-Regular';}
	.st5{font-size:12px;}
	.st6{opacity:0.4;fill:#21A3A3;enable-background:new    ;}
</style>
<g id="figure_1">
	<g id="axes_1">
		<g id="patch_2">
			<g>
				<defs>
					<rect id="SVGID_1_" x="38.7" width="268.8" height="266.1"/>
				</defs>
				<clipPath id="SVGID_2_">
					<use xlink:href="#SVGID_1_"  style="overflow:visible;"/>
				</clipPath>
				<path class="st0" d="M83.1,199.5c-14-19.3-21.6-42.6-21.6-66.5S69,85.9,83.1,66.6c-15.7,18.6-24.3,42.1-24.3,66.5
					S67.4,180.9,83.1,199.5"/>
			</g>
		</g>
		<g id="patch_3">
			<g>
				<defs>
					<rect id="SVGID_3_" x="38.7" width="268.8" height="266.1"/>
				</defs>
				<clipPath id="SVGID_4_">
					<use xlink:href="#SVGID_3_"  style="overflow:visible;"/>
				</clipPath>
				<path class="st1" d="M83.1,66.6c6.8-8,14.7-14.9,23.6-20.6s18.5-9.8,28.7-12.5c10.1-2.7,20.6-3.8,31.1-3.3
					c10.5,0.5,20.8,2.6,30.7,6.2c9.9,3.6,19.1,8.7,27.4,15.1c8.3,6.4,15.6,14,21.6,22.6s10.7,18.1,13.8,28.1
					c3.2,10,4.8,20.4,4.8,30.9S263.1,154,260,164c-3.2,10-7.8,19.5-13.8,28.1c-6,8.6-13.3,16.2-21.6,22.6
					c-8.3,6.4-17.6,11.5-27.4,15.1c-9.9,3.6-20.2,5.7-30.7,6.2c-10.5,0.5-21-0.6-31.1-3.3c-10.1-2.7-19.8-6.9-28.7-12.5
					c-8.9-5.6-16.8-12.5-23.6-20.6c7,9.6,15.4,18,25,25s20.2,12.4,31.5,16s23.1,5.5,34.9,5.5s23.6-1.9,34.9-5.5
					c11.3-3.7,21.9-9.1,31.5-16.1s18-15.4,25-25s12.4-20.2,16-31.5s5.5-23.1,5.5-34.9s-1.9-23.6-5.5-34.9s-9.1-21.9-16-31.5
					s-15.4-18-25-25s-20.2-12.4-31.5-16.1c-11.3-3.7-23-5.5-34.9-5.5s-23.6,1.9-34.9,5.5c-11.3,3.7-21.9,9.1-31.5,16
					C98.5,48.6,90.1,57,83.1,66.6"/>
			</g>
		</g>
		<g id="patch_4">
			<g>
				<defs>
					<rect id="SVGID_5_" x="38.7" width="268.8" height="266.1"/>
				</defs>
				<clipPath id="SVGID_6_">
					<use xlink:href="#SVGID_5_"  style="overflow:visible;"/>
				</clipPath>
				<path class="st2" d="M83.1,199.5c6.8,8,14.7,14.9,23.6,20.6c8.9,5.6,18.5,9.8,28.7,12.5c10.1,2.7,20.6,3.8,31.1,3.3
					c10.5-0.5,20.8-2.6,30.7-6.2c9.9-3.6,19.1-8.7,27.4-15.1c8.3-6.4,15.6-14,21.6-22.6c6-8.6,10.7-18.1,13.8-28.1
					c3.2-10,4.8-20.4,4.8-30.9s-1.6-20.9-4.8-30.9c-3.2-10-7.8-19.5-13.8-28.1s-13.3-16.2-21.6-22.6c-8.3-6.4-17.6-11.5-27.4-15.1
					c-9.9-3.6-20.2-5.7-30.7-6.2c-10.5-0.5-21,0.6-31.1,3.3c-10.1,2.7-19.8,6.9-28.7,12.5S89.9,58.6,83.1,66.6
					c-14,19.3-21.6,42.6-21.6,66.5S69,180.2,83.1,199.5"/>
			</g>
		</g>
		<g id="text_1">
			<g transform="translate(28.98473 158.1335)scale(0.1 -0.1)">
				<g>
					<path id="DejaVuSans-49" d="M260.2,231.5h16.1v55.6l-17.5-3.5v9l17.4,3.5h9.9v-64.6h16.1v-8.3h-42V231.5z"/>
				</g>
				<g>
					<path id="DejaVuSans-54" d="M344.5,263.6c-4.4,0-7.9-1.5-10.5-4.5c-2.6-3-3.9-7.2-3.9-12.4c0-5.2,1.3-9.4,3.9-12.4
						c2.6-3,6.1-4.6,10.5-4.6s7.9,1.5,10.5,4.6c2.6,3.1,3.9,7.2,3.9,12.4c0,5.3-1.3,9.4-3.9,12.4C352.4,262,348.9,263.6,344.5,263.6
						z M364,294.5v-9c-2.5,1.2-5,2.1-7.5,2.7c-2.5,0.6-5,0.9-7.5,0.9c-6.5,0-11.5-2.2-14.9-6.6c-3.4-4.4-5.4-11-5.9-19.9
						c1.9,2.8,4.3,5,7.2,6.5c2.9,1.5,6.1,2.3,9.6,2.3c7.3,0,13.1-2.2,17.4-6.7c4.2-4.4,6.4-10.5,6.4-18.1c0-7.5-2.2-13.5-6.6-18
						c-4.4-4.5-10.3-6.8-17.7-6.8c-8.4,0-14.9,3.2-19.3,9.7c-4.5,6.5-6.7,15.8-6.7,28.1c0,11.5,2.7,20.7,8.2,27.6s12.8,10.3,22,10.3
						c2.5,0,5-0.2,7.5-0.7S361.3,295.4,364,294.5z"/>
				</g>
			</g>
		</g>
		<g id="text_2">
			<g transform="translate(241.754675 158.1335)scale(0.1 -0.1)">
				<g>
					<path id="DejaVuSans-52" d="M285.6,287.5l-24.9-38.9h24.9V287.5z M283,296.1h12.4v-47.5h10.4v-8.2h-10.4v-17.2h-9.8v17.2h-32.9
						v9.5L283,296.1z"/>
				</g>
				<g>
					<path id="DejaVuSans-52_1_" d="M349.2,287.5l-24.9-38.9h24.9V287.5z M346.6,296.1h12.4v-47.5h10.4v-8.2h-10.4v-17.2h-9.8v17.2
						h-32.9v9.5L346.6,296.1z"/>
				</g>
				<g>
					<path id="DejaVuSans-48" d="M406.8,289.6c-5.1,0-8.9-2.5-11.5-7.5c-2.6-5-3.8-12.5-3.8-22.5c0-10,1.3-17.5,3.8-22.5
						c2.6-5,6.4-7.5,11.5-7.5c5.1,0,8.9,2.5,11.5,7.5c2.6,5,3.8,12.5,3.8,22.5c0,10-1.3,17.5-3.8,22.5
						C415.8,287.1,412,289.6,406.8,289.6z M406.8,297.4c8.2,0,14.4-3.2,18.7-9.7c4.3-6.5,6.5-15.8,6.5-28.1
						c0-12.3-2.2-21.6-6.5-28.1c-4.3-6.5-10.6-9.7-18.7-9.7c-8.2,0-14.4,3.2-18.7,9.7c-4.3,6.5-6.5,15.8-6.5,28.1
						c0,12.3,2.2,21.7,6.5,28.1C392.4,294.2,398.7,297.4,406.8,297.4z"/>
				</g>
			</g>
		</g>
		<g id="text_3">
			<g transform="translate(125.604405 158.1335)scale(0.1 -0.1)">
				<g>
					<path id="DejaVuSans-50" d="M267,231.5h34.4v-8.3h-46.3v8.3c3.7,3.9,8.8,9.1,15.3,15.6c6.5,6.5,10.5,10.7,12.2,12.6
						c3.2,3.5,5.4,6.5,6.6,9c1.3,2.5,1.9,4.9,1.9,7.2c0,3.9-1.4,7-4.1,9.5c-2.7,2.4-6.3,3.7-10.6,3.7c-3.1,0-6.4-0.5-9.8-1.6
						c-3.4-1.1-7.1-2.7-11-4.9v10c4,1.6,7.7,2.8,11.1,3.6c3.5,0.8,6.6,1.2,9.5,1.2c7.6,0,13.6-1.9,18.1-5.7
						c4.5-3.8,6.7-8.8,6.7-15.1c0-3-0.6-5.8-1.7-8.5c-1.1-2.7-3.2-5.8-6.1-9.5c-0.8-0.9-3.4-3.7-7.8-8.2
						C281.1,245.9,275,239.6,267,231.5z"/>
				</g>
				<g>
					<path id="DejaVuSans-48_1_" d="M343.2,289.6c-5.1,0-8.9-2.5-11.5-7.5c-2.6-5-3.8-12.5-3.8-22.5c0-10,1.3-17.5,3.8-22.5
						c2.6-5,6.4-7.5,11.5-7.5c5.1,0,8.9,2.5,11.5,7.5c2.6,5,3.8,12.5,3.8,22.5c0,10-1.3,17.5-3.8,22.5
						C352.2,287.1,348.3,289.6,343.2,289.6z M343.2,297.4c8.2,0,14.4-3.2,18.7-9.7c4.3-6.5,6.5-15.8,6.5-28.1
						c0-12.3-2.2-21.6-6.5-28.1c-4.3-6.5-10.6-9.7-18.7-9.7c-8.2,0-14.4,3.2-18.7,9.7c-4.3,6.5-6.5,15.8-6.5,28.1
						c0,12.3,2.2,21.7,6.5,28.1C328.8,294.2,335.1,297.4,343.2,297.4z"/>
				</g>
				<g>
					<path id="DejaVuSans-54_1_" d="M408.1,263.6c-4.4,0-7.9-1.5-10.5-4.5c-2.6-3-3.9-7.2-3.9-12.4c0-5.2,1.3-9.4,3.9-12.4
						c2.6-3,6.1-4.6,10.5-4.6c4.4,0,7.9,1.5,10.5,4.6c2.6,3.1,3.9,7.2,3.9,12.4c0,5.3-1.3,9.4-3.9,12.4
						C416,262,412.5,263.6,408.1,263.6z M427.7,294.5v-9c-2.5,1.2-5,2.1-7.5,2.7c-2.5,0.6-5,0.9-7.5,0.9c-6.5,0-11.5-2.2-14.9-6.6
						c-3.4-4.4-5.4-11-5.9-19.9c1.9,2.8,4.3,5,7.2,6.5c2.9,1.5,6.1,2.3,9.6,2.3c7.3,0,13.1-2.2,17.4-6.7c4.2-4.4,6.4-10.5,6.4-18.1
						c0-7.5-2.2-13.5-6.6-18c-4.4-4.5-10.3-6.8-17.7-6.8c-8.4,0-14.9,3.2-19.3,9.7c-4.5,6.5-6.7,15.8-6.7,28.1
						c0,11.5,2.7,20.7,8.2,27.6s12.8,10.3,22,10.3c2.5,0,5-0.2,7.5-0.7C422.3,296.2,424.9,295.4,427.7,294.5z"/>
				</g>
				<g>
					<path id="DejaVuSans-57" d="M449.7,224.7v9c2.5-1.2,5-2.1,7.5-2.7c2.5-0.6,5-0.9,7.5-0.9c6.5,0,11.5,2.2,14.9,6.6
						c3.4,4.4,5.4,11,5.9,20c-1.9-2.8-4.3-5-7.2-6.5c-2.9-1.5-6.1-2.2-9.6-2.2c-7.3,0-13.1,2.2-17.3,6.6c-4.2,4.4-6.4,10.5-6.4,18.1
						c0,7.5,2.2,13.5,6.6,18c4.4,4.5,10.3,6.8,17.7,6.8c8.4,0,14.9-3.2,19.3-9.7c4.4-6.5,6.7-15.8,6.7-28.1
						c0-11.5-2.7-20.7-8.2-27.5c-5.4-6.9-12.8-10.3-22-10.3c-2.5,0-5,0.2-7.5,0.7C455,223,452.4,223.7,449.7,224.7z M469.3,255.6
						c4.4,0,7.9,1.5,10.5,4.5c2.6,3,3.9,7.2,3.9,12.5c0,5.2-1.3,9.4-3.9,12.4c-2.6,3-6.1,4.6-10.5,4.6c-4.4,0-7.9-1.5-10.5-4.6
						c-2.6-3-3.9-7.2-3.9-12.4c0-5.3,1.3-9.4,3.9-12.5C461.4,257.1,464.9,255.6,469.3,255.6z"/>
				</g>
			</g>
		</g>
		<text transform="matrix(1 0 0 1 293.4751 135.9573)" class="st3 st4 st5">Illumina</text>
		<text transform="matrix(1 0 0 1 28.7278 135.9573)" class="st6 st4 st5">BGI</text>
	</g>
</g>
</svg>
