<?xml version="1.0" encoding="utf-8"?>
<!-- Generator: Adobe Illustrator 24.1.3, SVG Export Plug-In . SVG Version: 6.00 Build 0)  -->
<svg version="1.1" id="Layer_1" xmlns="http://www.w3.org/2000/svg" xmlns:xlink="http://www.w3.org/1999/xlink" x="0px" y="0px"
	 viewBox="0 0 362.2 295.6" style="enable-background:new 0 0 362.2 295.6;" xml:space="preserve">
<style type="text/css">
	.st0{fill:#FFFFFF;}
	.st1{opacity:0.4;clip-path:url(#SVGID_2_);fill:#E99B53;enable-background:new    ;}
	.st2{opacity:0.4;clip-path:url(#SVGID_4_);fill:#99CCCD;enable-background:new    ;}
	.st3{opacity:0.4;clip-path:url(#SVGID_6_);fill:#FAE483;stroke:#FAE483;enable-background:new    ;}
</style>
<g id="figure_1">
	<g id="patch_1">
		<path class="st0" d="M0,295.6h362.2V0H0V295.6z"/>
	</g>
	<g id="axes_1">
		<g id="patch_2">
			<g>
				<defs>
					<rect id="SVGID_1_" x="48.1" y="22.3" width="266.1" height="266.1"/>
				</defs>
				<clipPath id="SVGID_2_">
					<use xlink:href="#SVGID_1_"  style="overflow:visible;"/>
				</clipPath>
				<path class="st1" d="M68.1,156.4c0-0.3,0-0.7,0-1c0-0.3,0-0.7,0-1c0,0.3,0,0.7,0,1S68.1,156,68.1,156.4"/>
			</g>
		</g>
		<g id="patch_3">
			<g>
				<defs>
					<rect id="SVGID_3_" x="48.1" y="22.3" width="266.1" height="266.1"/>
				</defs>
				<clipPath id="SVGID_4_">
					<use xlink:href="#SVGID_3_"  style="overflow:visible;"/>
				</clipPath>
				<path class="st2" d="M68.1,154.4c0.1-2.6,0.8-5.2,1.9-7.5c1.1-2.4,2.7-4.5,4.6-6.3c1.9-1.8,4.1-3.2,6.6-4.1
					c2.4-0.9,5-1.4,7.6-1.3c2.6,0.1,5.2,0.6,7.6,1.7s4.6,2.5,6.4,4.4c1.8,1.9,3.3,4.1,4.2,6.5c1,2.4,1.5,5,1.5,7.6
					c0,2.6-0.5,5.2-1.5,7.6c-1,2.4-2.4,4.6-4.2,6.5c-1.8,1.9-4,3.4-6.4,4.4c-2.4,1-5,1.6-7.6,1.7c-2.6,0.1-5.2-0.4-7.6-1.3
					s-4.7-2.3-6.6-4.1c-1.9-1.8-3.5-3.9-4.6-6.3c-1.1-2.4-1.7-4.9-1.9-7.5c0.1,14.8,3.2,29.4,8.9,43.1c5.8,13.6,14.2,26,24.7,36.4
					c10.5,10.4,23,18.6,36.7,24.2c13.7,5.6,28.4,8.4,43.2,8.4s29.4-3,43.1-8.7c13.7-5.7,26.1-14,36.5-24.5
					c10.4-10.5,18.7-22.9,24.4-36.6c5.6-13.7,8.6-28.3,8.6-43.1c0-14.8-2.9-29.5-8.6-43.1s-13.9-26.1-24.4-36.6
					s-22.8-18.8-36.5-24.5c-13.7-5.7-28.3-8.7-43.1-8.7s-29.5,2.8-43.2,8.4s-26.2,13.8-36.7,24.2S82.8,97.7,77,111.3
					S68.2,139.6,68.1,154.4"/>
			</g>
		</g>
		<g id="patch_4">
			<g>
				<defs>
					<rect id="SVGID_5_" x="48.1" y="22.3" width="266.1" height="266.1"/>
				</defs>
				<clipPath id="SVGID_6_">
					<use xlink:href="#SVGID_5_"  style="overflow:visible;"/>
				</clipPath>
				<path class="st3" d="M68.1,156.4c0.1,2.6,0.8,5.2,1.9,7.5c1.1,2.4,2.7,4.5,4.6,6.3c1.9,1.8,4.1,3.2,6.6,4.1s5,1.4,7.6,1.3
					c2.6-0.1,5.2-0.6,7.6-1.7c2.4-1,4.6-2.5,6.4-4.4c1.8-1.9,3.3-4.1,4.2-6.5c1-2.4,1.5-5,1.5-7.6c0-2.6-0.5-5.2-1.5-7.6
					c-1-2.4-2.4-4.6-4.2-6.5c-1.8-1.9-4-3.4-6.4-4.4s-5-1.6-7.6-1.7c-2.6-0.1-5.2,0.4-7.6,1.3c-2.4,0.9-4.7,2.3-6.6,4.1
					c-1.9,1.8-3.5,3.9-4.6,6.3c-1.1,2.4-1.7,4.9-1.9,7.5c0,0.3,0,0.7,0,1C68.1,155.7,68.1,156,68.1,156.4"/>
			</g>
		</g>
		<g id="text_1">
			<g transform="translate(64.918709 158.1335)scale(0.1 -0.1)">
				<g>
					<path id="DejaVuSans-48" d="M31.8,66.4c-5.1,0-8.9-2.5-11.5-7.5c-2.6-5-3.8-12.5-3.8-22.5c0-10,1.3-17.5,3.8-22.5
						c2.6-5,6.4-7.5,11.5-7.5c5.1,0,8.9,2.5,11.5,7.5c2.6,5,3.8,12.5,3.8,22.5c0,10-1.3,17.5-3.8,22.5
						C40.7,63.9,36.9,66.4,31.8,66.4z M31.8,74.2c8.2,0,14.4-3.2,18.7-9.7c4.3-6.5,6.5-15.8,6.5-28.1c0-12.3-2.2-21.6-6.5-28.1
						C46.2,1.8,40-1.4,31.8-1.4c-8.2,0-14.4,3.2-18.7,9.7c-4.3,6.5-6.5,15.8-6.5,28.1c0,12.3,2.2,21.7,6.5,28.1
						C17.4,71,23.6,74.2,31.8,74.2z"/>
				</g>
			</g>
		</g>
		<g id="text_2">
			<g transform="translate(188.580029 158.1335)scale(0.1 -0.1)">
				<g>
					<path id="DejaVuSans-50" d="M19.2,8.3h34.4V0H7.3v8.3c3.7,3.9,8.8,9.1,15.3,15.6c6.5,6.5,10.5,10.7,12.2,12.6
						c3.2,3.5,5.4,6.5,6.6,9c1.3,2.5,1.9,4.9,1.9,7.2c0,3.9-1.4,7-4.1,9.5c-2.7,2.4-6.3,3.7-10.6,3.7c-3.1,0-6.4-0.5-9.8-1.6
						c-3.4-1.1-7.1-2.7-11-4.9v10c4,1.6,7.7,2.8,11.1,3.6c3.5,0.8,6.6,1.2,9.5,1.2c7.6,0,13.6-1.9,18.1-5.7
						c4.5-3.8,6.7-8.8,6.7-15.1c0-3-0.6-5.8-1.7-8.5c-1.1-2.7-3.2-5.8-6.1-9.5c-0.8-0.9-3.4-3.7-7.8-8.2
						C33.3,22.7,27.1,16.4,19.2,8.3z"/>
				</g>
				<g>
					<path id="DejaVuSans-52" d="M101.4,64.3L76.5,25.4h24.9V64.3z M98.8,72.9h12.4V25.4h10.4v-8.2h-10.4V0h-9.8v17.2H68.5v9.5
						L98.8,72.9z"/>
				</g>
				<g>
					<path id="DejaVuSans-50_1_" d="M146.4,8.3h34.4V0h-46.3v8.3c3.7,3.9,8.8,9.1,15.3,15.6c6.5,6.5,10.5,10.7,12.2,12.6
						c3.2,3.5,5.4,6.5,6.6,9c1.3,2.5,1.9,4.9,1.9,7.2c0,3.9-1.4,7-4.1,9.5c-2.7,2.4-6.3,3.7-10.6,3.7c-3.1,0-6.4-0.5-9.8-1.6
						c-3.4-1.1-7.1-2.7-11-4.9v10c4,1.6,7.7,2.8,11.1,3.6c3.5,0.8,6.6,1.2,9.5,1.2c7.6,0,13.6-1.9,18.1-5.7
						c4.5-3.8,6.7-8.8,6.7-15.1c0-3-0.6-5.8-1.7-8.5c-1.1-2.7-3.2-5.8-6.1-9.5c-0.8-0.9-3.4-3.7-7.8-8.2
						C160.5,22.7,154.4,16.4,146.4,8.3z"/>
				</g>
				<g>
					<path id="DejaVuSans-57" d="M201.9,1.5v9c2.5-1.2,5-2.1,7.5-2.7c2.5-0.6,5-0.9,7.5-0.9c6.5,0,11.5,2.2,14.9,6.6
						c3.4,4.4,5.4,11,5.9,20c-1.9-2.8-4.3-5-7.2-6.5c-2.9-1.5-6.1-2.2-9.6-2.2c-7.3,0-13.1,2.2-17.3,6.6c-4.2,4.4-6.4,10.5-6.4,18.1
						c0,7.5,2.2,13.5,6.6,18c4.4,4.5,10.3,6.8,17.7,6.8c8.4,0,14.9-3.2,19.3-9.7c4.4-6.5,6.7-15.8,6.7-28.1
						c0-11.5-2.7-20.7-8.2-27.5c-5.4-6.9-12.8-10.3-22-10.3c-2.5,0-5,0.2-7.5,0.7C207.2-0.2,204.6,0.5,201.9,1.5z M221.5,32.4
						c4.4,0,7.9,1.5,10.5,4.5c2.6,3,3.9,7.2,3.9,12.5c0,5.2-1.3,9.4-3.9,12.4c-2.6,3-6.1,4.6-10.5,4.6c-4.4,0-7.9-1.5-10.5-4.6
						c-2.6-3-3.9-7.2-3.9-12.4c0-5.3,1.3-9.4,3.9-12.5C213.5,33.9,217.1,32.4,221.5,32.4z"/>
				</g>
			</g>
		</g>
		<g id="text_3">
			<g transform="translate(81.919363 158.1335)scale(0.1 -0.1)">
				<g>
					<path id="DejaVuSans-56" d="M31.8,34.6c-4.7,0-8.4-1.3-11.1-3.8c-2.7-2.5-4-6-4-10.3c0-4.4,1.3-7.8,4-10.4
						c2.7-2.5,6.4-3.8,11.1-3.8s8.4,1.3,11.1,3.8c2.7,2.5,4.1,6,4.1,10.3c0,4.4-1.3,7.8-4,10.3C40.2,33.4,36.5,34.6,31.8,34.6z
						 M21.9,38.8c-4.2,1-7.5,3-9.9,5.9c-2.4,2.9-3.5,6.4-3.5,10.6c0,5.8,2.1,10.4,6.2,13.8c4.2,3.4,9.8,5.1,17.1,5.1
						c7.3,0,13-1.7,17.1-5.1s6.2-8,6.2-13.8c0-4.2-1.2-7.7-3.5-10.6c-2.4-2.9-5.6-4.9-9.8-5.9c4.8-1.1,8.4-3.3,11.1-6.5
						c2.7-3.2,4-7.2,4-11.8c0-7.1-2.2-12.5-6.5-16.3C46,0.5,39.8-1.4,31.8-1.4c-8,0-14.2,1.9-18.5,5.7C8.9,8,6.8,13.4,6.8,20.5
						c0,4.6,1.3,8.6,4,11.8C13.5,35.5,17.2,37.7,21.9,38.8z M18.3,54.4c0-3.8,1.2-6.7,3.5-8.8c2.4-2.1,5.7-3.2,9.9-3.2
						c4.2,0,7.6,1.1,9.9,3.2c2.4,2.1,3.6,5.1,3.6,8.8c0,3.8-1.2,6.7-3.6,8.8c-2.4,2.1-5.7,3.2-9.9,3.2c-4.3,0-7.6-1.1-9.9-3.2
						C19.5,61.1,18.3,58.2,18.3,54.4z"/>
				</g>
				<g>
					<path id="DejaVuSans-48_1_" d="M95.4,66.4c-5.1,0-8.9-2.5-11.5-7.5c-2.6-5-3.8-12.5-3.8-22.5c0-10,1.3-17.5,3.8-22.5
						c2.6-5,6.4-7.5,11.5-7.5c5.1,0,8.9,2.5,11.5,7.5c2.6,5,3.8,12.5,3.8,22.5c0,10-1.3,17.5-3.8,22.5
						C104.4,63.9,100.5,66.4,95.4,66.4z M95.4,74.2c8.2,0,14.4-3.2,18.7-9.7c4.3-6.5,6.5-15.8,6.5-28.1c0-12.3-2.2-21.6-6.5-28.1
						c-4.3-6.5-10.6-9.7-18.7-9.7c-8.2,0-14.4,3.2-18.7,9.7c-4.3,6.5-6.5,15.8-6.5,28.1c0,12.3,2.2,21.7,6.5,28.1
						C81,71,87.2,74.2,95.4,74.2z"/>
				</g>
			</g>
		</g>
	</g>
</g>
</svg>
