<?xml version="1.0" encoding="utf-8"?>
<!-- Generator: Adobe Illustrator 24.1.3, SVG Export Plug-In . SVG Version: 6.00 Build 0)  -->
<svg version="1.1" id="Layer_1" xmlns="http://www.w3.org/2000/svg" xmlns:xlink="http://www.w3.org/1999/xlink" x="0px" y="0px"
	 viewBox="0 0 362.3 330.5" style="enable-background:new 0 0 362.3 330.5;" xml:space="preserve">
<style type="text/css">
	.st0{opacity:0.7;clip-path:url(#SVGID_2_);fill:#87CEEB;enable-background:new    ;}
	.st1{opacity:0.7;clip-path:url(#SVGID_4_);fill:#87CEEB;enable-background:new    ;}
	.st2{opacity:0.7;clip-path:url(#SVGID_6_);fill:#FFA500;enable-background:new    ;}
	.st3{opacity:0.7;clip-path:url(#SVGID_8_);fill:#FFFFA4;enable-background:new    ;}
	.st4{opacity:0.7;clip-path:url(#SVGID_10_);fill:#FFFFA4;enable-background:new    ;}
</style>
<g id="figure_1">
	<g id="axes_1">
		<g id="patch_2">
			<g>
				<defs>
					<rect id="SVGID_1_" x="7.7" y="26.9" width="345.8" height="307"/>
				</defs>
				<clipPath id="SVGID_2_">
					<use xlink:href="#SVGID_1_"  style="overflow:visible;"/>
				</clipPath>
				<path class="st0" d="M107.7,287.6c-17.4-12-31.6-28-41.4-46.7s-14.9-39.5-14.9-60.6s5.1-41.9,14.9-60.6s24-34.7,41.4-46.7
					c-22.4,7.6-41.8,22.1-55.6,41.3s-21.2,42.3-21.2,65.9s7.4,46.7,21.2,65.9C65.8,265.5,85.3,280,107.7,287.6"/>
			</g>
		</g>
		<g id="patch_3">
			<g>
				<defs>
					<rect id="SVGID_3_" x="7.7" y="26.9" width="345.8" height="307"/>
				</defs>
				<clipPath id="SVGID_4_">
					<use xlink:href="#SVGID_3_"  style="overflow:visible;"/>
				</clipPath>
				<path class="st1" d="M307.5,146.6c3,11,4.5,22.4,4.5,33.8s-1.5,22.8-4.5,33.8c6.7-2.7,12.5-7.4,16.6-13.4
					c4.1-6,6.2-13.1,6.2-20.4s-2.2-14.4-6.2-20.4C320,154,314.2,149.3,307.5,146.6"/>
			</g>
		</g>
		<g id="patch_4">
			<g>
				<defs>
					<rect id="SVGID_5_" x="7.7" y="26.9" width="345.8" height="307"/>
				</defs>
				<clipPath id="SVGID_6_">
					<use xlink:href="#SVGID_5_"  style="overflow:visible;"/>
				</clipPath>
				<path class="st2" d="M107.7,287.6c17.2,11.8,36.9,19.4,57.6,22c20.7,2.6,41.7,0.2,61.3-7c19.6-7.2,37.1-19,51.2-34.4
					c14.1-15.4,24.2-34,29.7-54.1c-5.5,2.2-11.5,3.1-17.4,2.4c-5.9-0.6-11.6-2.7-16.5-6s-9-7.8-11.8-13.1
					c-2.8-5.3-4.3-11.1-4.3-17.1s1.5-11.8,4.3-17.1c2.8-5.3,6.8-9.8,11.8-13.1s10.6-5.4,16.5-6c5.9-0.6,11.9,0.2,17.4,2.4
					c-5.4-20.1-15.6-38.7-29.7-54.1c-14.1-15.4-31.6-27.2-51.2-34.4c-19.6-7.2-40.6-9.6-61.3-7c-20.7,2.6-40.5,10.2-57.6,22
					c17-5.8,35.2-7.5,53-4.8s34.7,9.5,49.4,20c14.6,10.5,26.6,24.3,34.8,40.3c8.2,16,12.5,33.8,12.5,51.8s-4.3,35.8-12.5,51.8
					c-8.2,16-20.2,29.8-34.8,40.3c-14.6,10.5-31.6,17.3-49.4,20S124.7,293.4,107.7,287.6"/>
			</g>
		</g>
		<g id="patch_5">
			<g>
				<defs>
					<rect id="SVGID_7_" x="7.7" y="26.9" width="345.8" height="307"/>
				</defs>
				<clipPath id="SVGID_8_">
					<use xlink:href="#SVGID_7_"  style="overflow:visible;"/>
				</clipPath>
				<path class="st3" d="M107.7,287.6c17,5.8,35.2,7.5,53,4.8s34.7-9.5,49.4-20c14.6-10.5,26.6-24.3,34.8-40.3
					c8.2-16,12.5-33.8,12.5-51.8s-4.3-35.8-12.5-51.8c-8.2-16-20.2-29.8-34.8-40.3c-14.6-10.5-31.6-17.3-49.4-20s-36-1-53,4.8
					c-17.4,12-31.6,28-41.4,46.7s-14.9,39.5-14.9,60.6s5.1,41.9,14.9,60.6S90.3,275.6,107.7,287.6"/>
			</g>
		</g>
		<g id="patch_6">
			<g>
				<defs>
					<rect id="SVGID_9_" x="7.7" y="26.9" width="345.8" height="307"/>
				</defs>
				<clipPath id="SVGID_10_">
					<use xlink:href="#SVGID_9_"  style="overflow:visible;"/>
				</clipPath>
				<path class="st4" d="M307.5,146.6c-5.5-2.2-11.5-3.1-17.4-2.4c-5.9,0.6-11.6,2.7-16.5,6s-9,7.8-11.8,13.1
					c-2.8,5.3-4.3,11.1-4.3,17.1s1.5,11.8,4.3,17.1c2.8,5.3,6.8,9.8,11.8,13.1s10.6,5.4,16.5,6c5.9,0.6,11.9-0.2,17.4-2.4
					c3-11,4.5-22.4,4.5-33.8S310.4,157.6,307.5,146.6"/>
			</g>
		</g>
		<g id="text_1">
			<g transform="translate(84.582161 183.139849)scale(0.1 -0.1)">
				<g>
					<path id="DejaVuSans-50" d="M-478.8,8.3h34.4V0h-46.3v8.3c3.7,3.9,8.8,9.1,15.3,15.6c6.5,6.5,10.5,10.7,12.2,12.6
						c3.2,3.5,5.4,6.5,6.6,9c1.3,2.5,1.9,4.9,1.9,7.2c0,3.9-1.4,7-4.1,9.5c-2.7,2.4-6.3,3.7-10.6,3.7c-3.1,0-6.4-0.5-9.8-1.6
						c-3.4-1.1-7.1-2.7-11-4.9v10c4,1.6,7.7,2.8,11.1,3.6c3.5,0.8,6.6,1.2,9.5,1.2c7.6,0,13.6-1.9,18.1-5.7
						c4.5-3.8,6.7-8.8,6.7-15.1c0-3-0.6-5.8-1.7-8.5c-1.1-2.7-3.2-5.8-6.1-9.5c-0.8-0.9-3.4-3.7-7.8-8.2
						C-464.7,22.7-470.8,16.4-478.8,8.3z"/>
				</g>
				<g>
					<path id="DejaVuSans-54" d="M-401.3,40.4c-4.4,0-7.9-1.5-10.5-4.5c-2.6-3-3.9-7.2-3.9-12.4c0-5.2,1.3-9.4,3.9-12.4
						c2.6-3,6.1-4.6,10.5-4.6s7.9,1.5,10.5,4.6c2.6,3.1,3.9,7.2,3.9,12.4c0,5.3-1.3,9.4-3.9,12.4C-393.4,38.9-396.9,40.4-401.3,40.4
						z M-381.8,71.3v-9c-2.5,1.2-5,2.1-7.5,2.7c-2.5,0.6-5,0.9-7.5,0.9c-6.5,0-11.5-2.2-14.9-6.6c-3.4-4.4-5.4-11-5.9-19.9
						c1.9,2.8,4.3,5,7.2,6.5c2.9,1.5,6.1,2.3,9.6,2.3c7.3,0,13.1-2.2,17.4-6.7c4.2-4.4,6.4-10.5,6.4-18.1c0-7.5-2.2-13.5-6.6-18
						c-4.4-4.5-10.3-6.8-17.7-6.8c-8.4,0-14.9,3.2-19.3,9.7c-4.5,6.5-6.7,15.8-6.7,28.1c0,11.5,2.7,20.7,8.2,27.6s12.8,10.3,22,10.3
						c2.5,0,5-0.2,7.5-0.7C-387.1,73-384.5,72.3-381.8,71.3z"/>
				</g>
			</g>
		</g>
		<g id="text_2">
			<g transform="translate(367.737823 183.139849)scale(0.1 -0.1)">
				<g>
					<path id="DejaVuSans-51" d="M-457.4,39.3c4.7-1,8.4-3.1,11-6.3c2.7-3.2,4-7.1,4-11.8c0-7.2-2.5-12.8-7.4-16.7
						c-4.9-3.9-12-5.9-21.1-5.9c-3.1,0-6.2,0.3-9.4,0.9c-3.2,0.6-6.6,1.5-10,2.7v9.5c2.7-1.6,5.7-2.8,9-3.6
						c3.3-0.8,6.7-1.2,10.2-1.2c6.2,0,10.9,1.2,14.1,3.7c3.2,2.4,4.9,6,4.9,10.6c0,4.3-1.5,7.7-4.5,10.1c-3,2.4-7.2,3.6-12.6,3.6
						h-8.5V43h8.9c4.8,0,8.6,1,11.1,2.9c2.6,1.9,3.9,4.7,3.9,8.4c0,3.7-1.3,6.6-4,8.6c-2.6,2-6.4,3-11.4,3c-2.7,0-5.6-0.3-8.7-0.9
						c-3.1-0.6-6.5-1.5-10.2-2.7v8.8c3.8,1,7.3,1.8,10.5,2.3c3.3,0.5,6.4,0.8,9.2,0.8c7.5,0,13.4-1.7,17.8-5.1
						c4.4-3.4,6.5-8,6.5-13.8c0-4-1.2-7.5-3.5-10.2S-453.1,40.4-457.4,39.3z"/>
				</g>
			</g>
		</g>
		<g id="text_3">
			<g transform="translate(287.47246 183.139849)scale(0.1 -0.1)">
				<g>
					<path id="DejaVuSans-52" d="M-321.4,737.7l-24.9-38.9h24.9V737.7z M-323.9,746.3h12.4v-47.5h10.4v-8.2h-10.4v-17.2h-9.8v17.2
						h-32.9v9.5L-323.9,746.3z"/>
				</g>
				<g>
					<path id="DejaVuSans-52_1_" d="M-257.7,737.7l-24.9-38.9h24.9V737.7z M-260.3,746.3h12.4v-47.5h10.4v-8.2h-10.4v-17.2h-9.8
						v17.2h-32.9v9.5L-260.3,746.3z"/>
				</g>
				<g>
					<path id="DejaVuSans-55" d="M-223.7,746.3h46.9v-4.2l-26.5-68.7h-10.3l24.9,64.6h-35V746.3z"/>
				</g>
			</g>
		</g>
		<g id="text_4">
			<g transform="translate(191.489673 183.139849)scale(0.1 -0.1)">
				<g>
					<path id="DejaVuSans-49" d="M-1039.6-2.7h16.1v55.6l-17.5-3.5v9l17.4,3.5h9.9V-2.7h16.1V-11h-42V-2.7z"/>
				</g>
				<g>
					<path id="DejaVuSans-56" d="M-956.6,23.6c-4.7,0-8.4-1.3-11.1-3.8c-2.7-2.5-4-6-4-10.3c0-4.4,1.3-7.8,4-10.4
						c2.7-2.5,6.4-3.8,11.1-3.8s8.4,1.3,11.1,3.8c2.7,2.5,4.1,6,4.1,10.3c0,4.4-1.3,7.8-4,10.3C-948.2,22.4-951.9,23.6-956.6,23.6z
						 M-966.5,27.8c-4.2,1-7.5,3-9.9,5.9c-2.4,2.9-3.5,6.4-3.5,10.6c0,5.8,2.1,10.4,6.2,13.8c4.2,3.4,9.8,5.1,17.1,5.1
						c7.3,0,13-1.7,17.1-5.1c4.1-3.4,6.2-8,6.2-13.8c0-4.2-1.2-7.7-3.5-10.6c-2.4-2.9-5.6-4.9-9.8-5.9c4.8-1.1,8.4-3.3,11.1-6.5
						c2.7-3.2,4-7.2,4-11.8c0-7.1-2.2-12.5-6.5-16.3c-4.3-3.8-10.5-5.7-18.5-5.7c-8,0-14.2,1.9-18.5,5.7c-4.3,3.8-6.5,9.2-6.5,16.3
						c0,4.6,1.3,8.6,4,11.8C-974.9,24.5-971.2,26.7-966.5,27.8z M-970.1,43.4c0-3.8,1.2-6.7,3.5-8.8c2.4-2.1,5.7-3.2,9.9-3.2
						c4.2,0,7.6,1.1,9.9,3.2c2.4,2.1,3.6,5.1,3.6,8.8c0,3.8-1.2,6.7-3.6,8.8c-2.4,2.1-5.7,3.2-9.9,3.2c-4.3,0-7.6-1.1-9.9-3.2
						C-968.9,50.1-970.1,47.2-970.1,43.4z"/>
				</g>
				<g>
					<path id="DejaVuSans-55_1_" d="M-916.6,61.9h46.9v-4.2L-896.2-11h-10.3l24.9,64.6h-35V61.9z"/>
				</g>
				<g>
					<path id="DejaVuSans-57" d="M-850.2-9.5v9c2.5-1.2,5-2.1,7.5-2.7c2.5-0.6,5-0.9,7.5-0.9c6.5,0,11.5,2.2,14.9,6.6
						c3.4,4.4,5.4,11,5.9,20c-1.9-2.8-4.3-5-7.2-6.5c-2.9-1.5-6.1-2.2-9.6-2.2c-7.3,0-13.1,2.2-17.3,6.6c-4.2,4.4-6.4,10.5-6.4,18.1
						c0,7.5,2.2,13.5,6.6,18c4.4,4.5,10.3,6.8,17.7,6.8c8.4,0,14.9-3.2,19.3-9.7c4.4-6.5,6.7-15.8,6.7-28.1
						c0-11.5-2.7-20.7-8.2-27.5c-5.4-6.9-12.8-10.3-22-10.3c-2.5,0-5,0.2-7.5,0.7C-844.8-11.2-847.4-10.5-850.2-9.5z M-830.5,21.4
						c4.4,0,7.9,1.5,10.5,4.5c2.6,3,3.9,7.2,3.9,12.5c0,5.2-1.3,9.4-3.9,12.4c-2.6,3-6.1,4.6-10.5,4.6c-4.4,0-7.9-1.5-10.5-4.6
						c-2.6-3-3.9-7.2-3.9-12.4c0-5.3,1.3-9.4,3.9-12.5C-838.5,22.9-835,21.4-830.5,21.4z"/>
				</g>
			</g>
		</g>
		<g id="text_5">
			<g transform="translate(324.950239 183.139849)scale(0.1 -0.1)">
				<g>
					<path id="DejaVuSans-49_1_" d="M-485.6,8.3h16.1v55.6l-17.5-3.5v9l17.4,3.5h9.9V8.3h16.1V0h-42V8.3z"/>
				</g>
				<g>
					<path id="DejaVuSans-57_1_" d="M-423.4,1.5v9c2.5-1.2,5-2.1,7.5-2.7c2.5-0.6,5-0.9,7.5-0.9c6.5,0,11.5,2.2,14.9,6.6
						c3.4,4.4,5.4,11,5.9,20c-1.9-2.8-4.3-5-7.2-6.5c-2.9-1.5-6.1-2.2-9.6-2.2c-7.3,0-13.1,2.2-17.3,6.6c-4.2,4.4-6.4,10.5-6.4,18.1
						c0,7.5,2.2,13.5,6.6,18c4.4,4.5,10.3,6.8,17.7,6.8c8.4,0,14.9-3.2,19.3-9.7c4.4-6.5,6.7-15.8,6.7-28.1
						c0-11.5-2.7-20.7-8.2-27.5c-5.4-6.9-12.8-10.3-22-10.3c-2.5,0-5,0.2-7.5,0.7C-418-0.2-420.6,0.5-423.4,1.5z M-403.8,32.4
						c4.4,0,7.9,1.5,10.5,4.5c2.6,3,3.9,7.2,3.9,12.5c0,5.2-1.3,9.4-3.9,12.4c-2.6,3-6.1,4.6-10.5,4.6s-7.9-1.5-10.5-4.6
						c-2.6-3-3.9-7.2-3.9-12.4c0-5.3,1.3-9.4,3.9-12.5C-411.7,33.9-408.2,32.4-403.8,32.4z"/>
				</g>
				<g>
					<path id="DejaVuSans-52_2_" d="M-332.9,64.3l-24.9-38.9h24.9V64.3z M-335.5,72.9h12.4V25.4h10.4v-8.2h-10.4V0h-9.8v17.2h-32.9
						v9.5L-335.5,72.9z"/>
				</g>
			</g>
		</g>
		<g id="text_6">
			<g transform="translate(179.724468 312.101014)scale(0.12 -0.12)">
				<g>
					<path id="DejaVuSans-66" d="M-1085.1,1259.6v-26.7h15.8c5.3,0,9.2,1.1,11.8,3.3c2.6,2.2,3.8,5.6,3.8,10.1
						c0,4.6-1.3,7.9-3.8,10.1c-2.6,2.2-6.5,3.2-11.8,3.2H-1085.1z M-1085.1,1289.6v-22h14.6c4.8,0,8.4,0.9,10.8,2.7
						c2.4,1.8,3.5,4.6,3.5,8.3c0,3.7-1.2,6.4-3.5,8.2c-2.4,1.8-5.9,2.7-10.8,2.7H-1085.1z M-1095,1297.7h25.2
						c7.5,0,13.3-1.6,17.4-4.7c4.1-3.1,6.1-7.6,6.1-13.3c0-4.5-1-8-3.1-10.7c-2.1-2.6-5.1-4.3-9.2-4.9c4.9-1,8.6-3.2,11.3-6.5
						c2.7-3.3,4-7.4,4-12.4c0-6.5-2.2-11.5-6.6-15.1c-4.4-3.5-10.7-5.3-18.9-5.3h-26.2V1297.7z"/>
				</g>
				<g>
					<path id="DejaVuSans-71" d="M-978.4,1235.2v19.6h-16.1v8.1h25.9v-31.3c-3.8-2.7-8-4.7-12.6-6.1c-4.6-1.4-9.5-2.1-14.7-2.1
						c-11.4,0-20.3,3.3-26.7,10c-6.4,6.7-9.6,15.9-9.6,27.8c0,11.9,3.2,21.2,9.6,27.9c6.4,6.7,15.4,10,26.7,10
						c4.8,0,9.3-0.6,13.5-1.8c4.3-1.2,8.2-2.9,11.8-5.2v-10.5c-3.6,3.1-7.5,5.4-11.6,7c-4.1,1.6-8.4,2.3-12.9,2.3
						c-8.9,0-15.6-2.5-20.1-7.5c-4.5-5-6.7-12.4-6.7-22.3c0-9.8,2.2-17.2,6.7-22.2c4.5-5,11.2-7.5,20.1-7.5c3.5,0,6.6,0.3,9.3,0.9
						C-983.1,1233-980.6,1233.9-978.4,1235.2z"/>
				</g>
				<g>
					<path id="DejaVuSans-73" d="M-950.7,1297.7h9.9v-72.9h-9.9V1297.7z"/>
				</g>
				<g>
					<path id="DejaVuSans-49_2_" d="M-918.6,1233.1h16.1v55.6l-17.5-3.5v9l17.4,3.5h9.9v-64.6h16.1v-8.3h-42V1233.1z"/>
				</g>
			</g>
		</g>
		<g id="text_7">
			<g transform="translate(329.424209 235.256087)scale(0.12 -0.12)">
				<g>
					<path id="DejaVuSans-66_1_" d="M-309.6,620.1v-26.7h15.8c5.3,0,9.2,1.1,11.8,3.3c2.6,2.2,3.8,5.6,3.8,10.1
						c0,4.6-1.3,7.9-3.8,10.1c-2.6,2.2-6.5,3.2-11.8,3.2H-309.6z M-309.6,650.1v-22h14.6c4.8,0,8.4,0.9,10.8,2.7
						c2.4,1.8,3.5,4.6,3.5,8.3c0,3.7-1.2,6.4-3.5,8.2c-2.4,1.8-5.9,2.7-10.8,2.7H-309.6z M-319.5,658.2h25.2
						c7.5,0,13.3-1.6,17.4-4.7c4.1-3.1,6.1-7.6,6.1-13.3c0-4.5-1-8-3.1-10.7c-2.1-2.6-5.1-4.3-9.2-4.9c4.9-1,8.6-3.2,11.3-6.5
						c2.7-3.3,4-7.4,4-12.4c0-6.5-2.2-11.5-6.6-15.1c-4.4-3.5-10.7-5.3-18.9-5.3h-26.2V658.2z"/>
				</g>
				<g>
					<path id="DejaVuSans-71_1_" d="M-202.9,595.7v19.6h-16.1v8.1h25.9V592c-3.8-2.7-8-4.7-12.6-6.1c-4.6-1.4-9.5-2.1-14.7-2.1
						c-11.4,0-20.3,3.3-26.8,10c-6.4,6.7-9.6,15.9-9.6,27.8c0,11.9,3.2,21.2,9.6,27.9c6.4,6.7,15.4,10,26.8,10
						c4.8,0,9.3-0.6,13.5-1.8c4.3-1.2,8.2-2.9,11.8-5.2V642c-3.6,3.1-7.5,5.4-11.6,7c-4.1,1.6-8.4,2.3-12.9,2.3
						c-8.9,0-15.6-2.5-20.1-7.5c-4.5-5-6.7-12.4-6.7-22.3c0-9.8,2.2-17.2,6.7-22.2c4.5-5,11.2-7.5,20.1-7.5c3.5,0,6.6,0.3,9.3,0.9
						C-207.6,593.5-205.1,594.4-202.9,595.7z"/>
				</g>
				<g>
					<path id="DejaVuSans-73_1_" d="M-175.2,658.2h9.9v-72.9h-9.9V658.2z"/>
				</g>
				<g>
					<path id="DejaVuSans-50_1_" d="M-136.3,593.6h34.4v-8.3h-46.3v8.3c3.7,3.9,8.8,9.1,15.3,15.6c6.5,6.5,10.5,10.7,12.2,12.6
						c3.2,3.5,5.4,6.5,6.6,9c1.3,2.5,1.9,4.9,1.9,7.2c0,3.9-1.4,7-4.1,9.5c-2.7,2.4-6.3,3.7-10.6,3.7c-3.1,0-6.4-0.5-9.8-1.6
						c-3.4-1.1-7.1-2.7-11-4.9v10c4,1.6,7.7,2.8,11.1,3.6c3.5,0.8,6.6,1.2,9.5,1.2c7.6,0,13.6-1.9,18.1-5.7
						c4.5-3.8,6.7-8.8,6.7-15.1c0-3-0.6-5.8-1.7-8.5c-1.1-2.7-3.2-5.8-6.1-9.5c-0.8-0.9-3.4-3.7-7.8-8.2
						C-122.2,608-128.3,601.7-136.3,593.6z"/>
				</g>
			</g>
		</g>
		<g id="text_8">
			<g transform="translate(207.566859 329.107995)scale(0.12 -0.12)">
				<g>
					<path id="DejaVuSans-73_2_" d="M184.8,1966.3h9.9v-72.9h-9.9V1966.3z"/>
				</g>
				<g>
					<path id="DejaVuSans-108" d="M213.9,1969.4h9v-76h-9V1969.4z"/>
				</g>
				<g>
					<path id="DejaVuSans-108_1_" d="M241.7,1969.4h9v-76h-9V1969.4z"/>
				</g>
				<g>
					<path id="DejaVuSans-117" d="M268.6,1915v33.1h9v-32.8c0-5.2,1-9.1,3-11.7c2-2.6,5.1-3.9,9.1-3.9c4.8,0,8.7,1.5,11.5,4.6
						c2.8,3.1,4.2,7.3,4.2,12.7v31h9v-54.7h-9v8.4c-2.2-3.3-4.7-5.8-7.6-7.4c-2.9-1.6-6.2-2.4-10-2.4c-6.3,0-11.1,2-14.3,5.9
						C270.2,1901.7,268.6,1907.5,268.6,1915z"/>
				</g>
				<g>
					<path id="DejaVuSans-109" d="M375.4,1937.6c2.2,4,4.9,7,8.1,8.9c3.1,1.9,6.8,2.9,11,2.9c5.7,0,10.1-2,13.2-6
						c3.1-4,4.6-9.6,4.6-17v-33h-9v32.7c0,5.2-0.9,9.1-2.8,11.7c-1.9,2.5-4.7,3.8-8.5,3.8c-4.7,0-8.3-1.5-11-4.6
						c-2.7-3.1-4-7.3-4-12.6v-30.9h-9v32.7c0,5.3-0.9,9.2-2.8,11.7c-1.9,2.5-4.7,3.8-8.6,3.8c-4.6,0-8.2-1.6-11-4.7
						c-2.7-3.1-4-7.3-4-12.6v-30.9h-9v54.7h9v-8.5c2.1,3.4,4.5,5.8,7.4,7.4c2.9,1.6,6.3,2.4,10.2,2.4c4,0,7.4-1,10.1-3
						C372,1944.4,374.1,1941.4,375.4,1937.6z"/>
				</g>
				<g>
					<path id="DejaVuSans-105" d="M430.3,1948.1h9v-54.7h-9V1948.1z M430.3,1969.4h9V1958h-9V1969.4z"/>
				</g>
				<g>
					<path id="DejaVuSans-110" d="M503.5,1926.4v-33h-9v32.7c0,5.2-1,9-3,11.6c-2,2.6-5,3.9-9.1,3.9c-4.9,0-8.7-1.5-11.5-4.6
						c-2.8-3.1-4.2-7.3-4.2-12.6v-30.9h-9v54.7h9v-8.5c2.2,3.3,4.7,5.8,7.6,7.4c2.9,1.6,6.3,2.4,10.1,2.4c6.3,0,11-1.9,14.2-5.8
						C501.9,1939.7,503.5,1934,503.5,1926.4z"/>
				</g>
				<g>
					<path id="DejaVuSans-97" d="M546.3,1920.9c-7.3,0-12.3-0.8-15.1-2.5c-2.8-1.7-4.2-4.5-4.2-8.5c0-3.2,1.1-5.7,3.2-7.6
						c2.1-1.9,5-2.8,8.6-2.8c5,0,9,1.8,12,5.3s4.5,8.2,4.5,14.1v2H546.3z M564.2,1924.6v-31.2h-9v8.3c-2.1-3.3-4.6-5.8-7.7-7.3
						c-3.1-1.6-6.8-2.4-11.2-2.4c-5.6,0-10,1.6-13.4,4.7c-3.3,3.1-5,7.4-5,12.6c0,6.1,2.1,10.8,6.2,13.9c4.1,3.1,10.3,4.7,18.4,4.7
						h12.6v0.9c0,4.1-1.4,7.3-4.1,9.6c-2.7,2.3-6.5,3.4-11.5,3.4c-3.1,0-6.2-0.4-9.1-1.1c-3-0.8-5.8-1.9-8.5-3.4v8.3
						c3.3,1.3,6.5,2.2,9.6,2.8c3.1,0.6,6.1,1,9,1c7.9,0,13.8-2.1,17.7-6.2C562.3,1939.2,564.2,1932.9,564.2,1924.6z"/>
				</g>
			</g>
		</g>
		<g id="text_9">
			<g transform="translate(151.540312 20.88)scale(0.12 -0.12)">
				<g>
					<path id="DejaVuSans-79" d="M-387.7-11.4c-7.2,0-12.9-2.7-17.1-8c-4.2-5.3-6.3-12.6-6.3-21.8c0-9.2,2.1-16.4,6.3-21.8
						c4.2-5.3,9.9-8,17.1-8c7.2,0,12.8,2.7,17,8c4.2,5.3,6.3,12.6,6.3,21.8c0,9.2-2.1,16.5-6.3,21.8
						C-374.9-14-380.6-11.4-387.7-11.4z M-387.7-3.4c10.2,0,18.4-3.4,24.5-10.3c6.1-6.9,9.2-16,9.2-27.6c0-11.5-3.1-20.7-9.2-27.5
						c-6.1-6.9-14.3-10.3-24.5-10.3c-10.2,0-18.4,3.4-24.6,10.2c-6.1,6.8-9.2,16-9.2,27.5s3.1,20.7,9.2,27.6
						C-406.2-6.8-398-3.4-387.7-3.4z"/>
				</g>
				<g>
					<path id="DejaVuSans-118" d="M-345.4-22.9h9.5l17.1-45.9l17.1,45.9h9.5l-20.5-54.7h-12.2L-345.4-22.9z"/>
				</g>
				<g>
					<path id="DejaVuSans-101" d="M-233-48v-4.4h-41.3c0.4-6.2,2.3-10.9,5.6-14.1c3.3-3.2,8-4.9,13.9-4.9c3.4,0,6.8,0.4,10,1.3
						c3.2,0.8,6.5,2.1,9.7,3.8v-8.5c-3.2-1.4-6.5-2.4-9.9-3.1c-3.4-0.7-6.8-1.1-10.3-1.1c-8.7,0-15.6,2.5-20.7,7.6
						c-5.1,5.1-7.6,12-7.6,20.6c0,8.9,2.4,16,7.2,21.3c4.8,5.3,11.4,7.9,19.6,7.9c7.4,0,13.2-2.4,17.5-7.1
						C-235.2-33.4-233-39.9-233-48z M-242-45.4c-0.1,4.9-1.4,8.8-4.1,11.8c-2.7,2.9-6.2,4.4-10.7,4.4c-5,0-9-1.4-12-4.2
						c-3-2.8-4.7-6.8-5.2-12L-242-45.4z"/>
				</g>
				<g>
					<path id="DejaVuSans-114" d="M-186.6-31.3c-1,0.6-2.1,1-3.3,1.3c-1.2,0.3-2.5,0.4-3.9,0.4c-5.1,0-9-1.7-11.7-5s-4.1-8-4.1-14.2
						v-28.8h-9v54.7h9v-8.5c1.9,3.3,4.4,5.8,7.4,7.4c3,1.6,6.7,2.4,11,2.4c0.6,0,1.3,0,2-0.1c0.8-0.1,1.6-0.2,2.5-0.4L-186.6-31.3z"
						/>
				</g>
				<g>
					<path id="DejaVuSans-108_2_" d="M-177.2-1.6h9v-76h-9V-1.6z"/>
				</g>
				<g>
					<path id="DejaVuSans-97_1_" d="M-124.5-50.1c-7.3,0-12.3-0.8-15.1-2.5c-2.8-1.7-4.2-4.5-4.2-8.5c0-3.2,1.1-5.7,3.2-7.6
						c2.1-1.9,5-2.8,8.6-2.8c5,0,9,1.8,12,5.3c3,3.5,4.5,8.2,4.5,14.1v2H-124.5z M-106.6-46.4v-31.2h-9v8.3
						c-2.1-3.3-4.6-5.8-7.7-7.3c-3.1-1.6-6.8-2.4-11.2-2.4c-5.6,0-10,1.6-13.4,4.7c-3.3,3.1-5,7.4-5,12.6c0,6.1,2.1,10.8,6.2,13.9
						c4.1,3.1,10.3,4.7,18.4,4.7h12.6v0.9c0,4.1-1.4,7.3-4.1,9.6s-6.5,3.4-11.5,3.4c-3.1,0-6.2-0.4-9.1-1.1c-3-0.8-5.8-1.9-8.5-3.4
						v8.3c3.3,1.3,6.5,2.2,9.6,2.8c3.1,0.6,6.1,1,9,1c7.9,0,13.8-2.1,17.7-6.2C-108.6-31.8-106.6-38.1-106.6-46.4z"/>
				</g>
				<g>
					<path id="DejaVuSans-112" d="M-79.4-69.4v-29h-9v75.5h9v-8.3c1.9,3.2,4.3,5.7,7.2,7.2c2.9,1.6,6.3,2.4,10.3,2.4
						c6.6,0,12-2.6,16.2-7.9c4.2-5.3,6.2-12.2,6.2-20.8s-2.1-15.5-6.2-20.8C-49.9-76.4-55.3-79-62-79c-4,0-7.4,0.8-10.3,2.4
						C-75.2-75.1-77.5-72.6-79.4-69.4z M-48.9-50.3c0,6.6-1.4,11.8-4.1,15.5s-6.5,5.6-11.2,5.6c-4.8,0-8.5-1.9-11.2-5.6
						s-4.1-8.9-4.1-15.5s1.4-11.8,4.1-15.5c2.7-3.8,6.5-5.6,11.2-5.6c4.8,0,8.5,1.9,11.2,5.6C-50.2-62.1-48.9-56.9-48.9-50.3z"/>
				</g>
				<g>
					<path id="DejaVuSans-115" d="M10.2-24.5V-33c-2.5,1.3-5.2,2.3-7.9,2.9c-2.7,0.7-5.6,1-8.5,1c-4.5,0-7.8-0.7-10-2
						s-3.3-3.4-3.3-6.2c0-2.1,0.8-3.7,2.4-4.9s4.8-2.3,9.6-3.4l3.1-0.7c6.4-1.4,10.9-3.3,13.6-5.8c2.7-2.5,4-6,4-10.4
						c0-5.1-2-9.1-6-12.1c-4-3-9.5-4.4-16.6-4.4c-2.9,0-6,0.3-9.2,0.9c-3.2,0.6-6.5,1.4-10,2.6v9.3c3.3-1.7,6.6-3,9.8-3.9
						c3.2-0.9,6.4-1.3,9.6-1.3c4.2,0,7.5,0.7,9.7,2.2c2.3,1.4,3.4,3.5,3.4,6.1c0,2.4-0.8,4.3-2.5,5.6c-1.6,1.3-5.2,2.6-10.8,3.8
						l-3.1,0.7c-5.6,1.2-9.6,3-12.1,5.4c-2.5,2.4-3.7,5.8-3.7,10c0,5.1,1.8,9.1,5.5,11.9c3.6,2.8,8.8,4.2,15.5,4.2
						c3.3,0,6.4-0.2,9.4-0.7C5-22.8,7.7-23.5,10.2-24.5z"/>
				</g>
				<g>
					<path id="DejaVuSans-32" d="M18-77.6"/>
				</g>
				<g>
					<path id="DejaVuSans-98" d="M98.5-50.3c0,6.6-1.4,11.8-4.1,15.5s-6.5,5.6-11.2,5.6c-4.8,0-8.5-1.9-11.2-5.6s-4.1-8.9-4.1-15.5
						s1.4-11.8,4.1-15.5c2.7-3.8,6.5-5.6,11.2-5.6c4.8,0,8.5,1.9,11.2,5.6C97.1-62.1,98.5-56.9,98.5-50.3z M67.9-31.2
						c1.9,3.2,4.3,5.7,7.2,7.2c2.9,1.6,6.3,2.4,10.3,2.4c6.6,0,12-2.6,16.2-7.9c4.2-5.3,6.2-12.2,6.2-20.8s-2.1-15.5-6.2-20.8
						c-4.1-5.3-9.5-7.9-16.2-7.9c-4,0-7.4,0.8-10.3,2.4c-2.9,1.6-5.3,4-7.2,7.2v-8.2h-9v76h9V-31.2z"/>
				</g>
				<g>
					<path id="DejaVuSans-101_1_" d="M169.5-48v-4.4h-41.3c0.4-6.2,2.3-10.9,5.6-14.1c3.3-3.2,8-4.9,13.9-4.9c3.4,0,6.8,0.4,10,1.3
						s6.5,2.1,9.7,3.8v-8.5c-3.2-1.4-6.5-2.4-9.9-3.1s-6.8-1.1-10.3-1.1c-8.7,0-15.6,2.5-20.7,7.6c-5.1,5.1-7.6,12-7.6,20.6
						c0,8.9,2.4,16,7.2,21.3c4.8,5.3,11.4,7.9,19.6,7.9c7.4,0,13.2-2.4,17.5-7.1C167.4-33.4,169.5-39.9,169.5-48z M160.5-45.4
						c-0.1,4.9-1.4,8.8-4.1,11.8c-2.7,2.9-6.2,4.4-10.7,4.4c-5,0-9-1.4-12-4.2s-4.7-6.8-5.2-12L160.5-45.4z"/>
				</g>
				<g>
					<path id="DejaVuSans-116" d="M193.1-7.4v-15.5h18.5v-7h-18.5v-29.7c0-4.5,0.6-7.3,1.8-8.6c1.2-1.3,3.7-1.9,7.5-1.9h9.2v-7.5
						h-9.2c-6.9,0-11.7,1.3-14.4,3.9c-2.6,2.6-4,7.3-4,14.1v29.7h-6.6v7h6.6v15.5H193.1z"/>
				</g>
				<g>
					<path id="DejaVuSans-119" d="M218.2-22.9h9l11.2-42.7l11.2,42.7h10.6l11.2-42.7l11.2,42.7h9l-14.3-54.7h-10.6l-11.8,44.8
						l-11.8-44.8h-10.6L218.2-22.9z"/>
				</g>
				<g>
					<path id="DejaVuSans-101_2_" d="M352-48v-4.4h-41.3c0.4-6.2,2.3-10.9,5.6-14.1c3.3-3.2,8-4.9,13.9-4.9c3.4,0,6.8,0.4,10,1.3
						c3.2,0.8,6.5,2.1,9.7,3.8v-8.5c-3.2-1.4-6.5-2.4-9.9-3.1c-3.4-0.7-6.8-1.1-10.3-1.1c-8.7,0-15.6,2.5-20.7,7.6
						c-5.1,5.1-7.6,12-7.6,20.6c0,8.9,2.4,16,7.2,21.3c4.8,5.3,11.4,7.9,19.6,7.9c7.4,0,13.2-2.4,17.5-7.1
						C349.9-33.4,352-39.9,352-48z M343-45.4c-0.1,4.9-1.4,8.8-4.1,11.8c-2.7,2.9-6.2,4.4-10.7,4.4c-5,0-9-1.4-12-4.2
						c-3-2.8-4.7-6.8-5.2-12L343-45.4z"/>
				</g>
				<g>
					<path id="DejaVuSans-101_3_" d="M413.5-48v-4.4h-41.3c0.4-6.2,2.3-10.9,5.6-14.1c3.3-3.2,8-4.9,13.9-4.9c3.4,0,6.8,0.4,10,1.3
						c3.2,0.8,6.5,2.1,9.7,3.8v-8.5c-3.2-1.4-6.5-2.4-9.9-3.1c-3.4-0.7-6.8-1.1-10.3-1.1c-8.7,0-15.6,2.5-20.7,7.6
						c-5.1,5.1-7.6,12-7.6,20.6c0,8.9,2.4,16,7.2,21.3c4.8,5.3,11.4,7.9,19.6,7.9c7.4,0,13.2-2.4,17.5-7.1
						C411.4-33.4,413.5-39.9,413.5-48z M404.6-45.4c-0.1,4.9-1.4,8.8-4.1,11.8c-2.7,2.9-6.2,4.4-10.7,4.4c-5,0-9-1.4-12-4.2
						c-3-2.8-4.7-6.8-5.2-12L404.6-45.4z"/>
				</g>
				<g>
					<path id="DejaVuSans-110_1_" d="M473.7-44.6v-33h-9v32.7c0,5.2-1,9-3,11.6c-2,2.6-5,3.9-9.1,3.9c-4.9,0-8.7-1.5-11.5-4.6
						c-2.8-3.1-4.2-7.3-4.2-12.6v-30.9h-9v54.7h9v-8.5c2.2,3.3,4.7,5.8,7.6,7.4c2.9,1.6,6.3,2.4,10.1,2.4c6.3,0,11-1.9,14.2-5.8
						C472.1-31.3,473.7-37,473.7-44.6z"/>
				</g>
				<g>
					<path id="DejaVuSans-32_1_" d="M482.2-77.6"/>
				</g>
				<g>
					<path id="DejaVuSans-99" d="M562.8-25v-8.4c-2.5,1.4-5.1,2.5-7.6,3.2c-2.6,0.7-5.1,1-7.7,1c-5.8,0-10.4-1.8-13.6-5.5
						c-3.2-3.7-4.8-8.9-4.8-15.5s1.6-11.9,4.8-15.6c3.2-3.7,7.8-5.5,13.6-5.5c2.6,0,5.2,0.3,7.7,1c2.6,0.7,5.1,1.8,7.6,3.2v-8.3
						c-2.5-1.2-5.1-2-7.8-2.6c-2.7-0.6-5.5-0.9-8.6-0.9c-8.2,0-14.8,2.6-19.6,7.8c-4.8,5.2-7.3,12.2-7.3,21c0,8.9,2.4,15.9,7.3,21
						c4.9,5.1,11.6,7.7,20.2,7.7c2.8,0,5.5-0.3,8.1-0.9C557.8-23,560.3-23.9,562.8-25z"/>
				</g>
				<g>
					<path id="DejaVuSans-111" d="M599.6-29.2c-4.8,0-8.6-1.9-11.4-5.6c-2.8-3.8-4.2-8.9-4.2-15.5s1.4-11.7,4.2-15.5
						c2.8-3.8,6.6-5.6,11.5-5.6c4.8,0,8.6,1.9,11.4,5.7c2.8,3.8,4.2,8.9,4.2,15.4c0,6.5-1.4,11.6-4.2,15.4
						C608.2-31.1,604.4-29.2,599.6-29.2z M599.6-21.6c7.8,0,13.9-2.5,18.4-7.6c4.5-5.1,6.7-12.1,6.7-21.1c0-8.9-2.2-16-6.7-21.1
						c-4.5-5.1-10.6-7.6-18.4-7.6c-7.8,0-14,2.5-18.4,7.6c-4.4,5.1-6.7,12.1-6.7,21.1c0,9,2.2,16,6.7,21.1
						C585.6-24.1,591.8-21.6,599.6-21.6z"/>
				</g>
				<g>
					<path id="DejaVuSans-104" d="M685.1-44.6v-33h-9v32.7c0,5.2-1,9-3,11.6c-2,2.6-5,3.9-9.1,3.9c-4.9,0-8.7-1.5-11.5-4.6
						c-2.8-3.1-4.2-7.3-4.2-12.6v-30.9h-9v76h9v-29.8c2.2,3.3,4.7,5.8,7.6,7.4c2.9,1.6,6.3,2.4,10.1,2.4c6.3,0,11-1.9,14.2-5.8
						C683.5-31.3,685.1-37,685.1-44.6z"/>
				</g>
				<g>
					<path id="DejaVuSans-111_1_" d="M724.2-29.2c-4.8,0-8.6-1.9-11.4-5.6c-2.8-3.8-4.2-8.9-4.2-15.5s1.4-11.7,4.2-15.5
						c2.8-3.8,6.6-5.6,11.5-5.6c4.8,0,8.6,1.9,11.4,5.7c2.8,3.8,4.2,8.9,4.2,15.4c0,6.5-1.4,11.6-4.2,15.4
						C732.8-31.1,729-29.2,724.2-29.2z M724.2-21.6c7.8,0,13.9-2.5,18.4-7.6c4.5-5.1,6.7-12.1,6.7-21.1c0-8.9-2.2-16-6.7-21.1
						c-4.5-5.1-10.6-7.6-18.4-7.6c-7.8,0-14,2.5-18.4,7.6c-4.4,5.1-6.7,12.1-6.7,21.1c0,9,2.2,16,6.7,21.1
						C710.2-24.1,716.3-21.6,724.2-21.6z"/>
				</g>
				<g>
					<path id="DejaVuSans-114_1_" d="M795.9-31.3c-1,0.6-2.1,1-3.3,1.3c-1.2,0.3-2.5,0.4-3.9,0.4c-5.1,0-9-1.7-11.7-5
						s-4.1-8-4.1-14.2v-28.8h-9v54.7h9v-8.5c1.9,3.3,4.4,5.8,7.4,7.4c3,1.6,6.7,2.4,11,2.4c0.6,0,1.3,0,2-0.1
						c0.8-0.1,1.6-0.2,2.5-0.4L795.9-31.3z"/>
				</g>
				<g>
					<path id="DejaVuSans-116_1_" d="M814.2-7.4v-15.5h18.5v-7h-18.5v-29.7c0-4.5,0.6-7.3,1.8-8.6c1.2-1.3,3.7-1.9,7.5-1.9h9.2v-7.5
						h-9.2c-6.9,0-11.7,1.3-14.4,3.9c-2.6,2.6-4,7.3-4,14.1v29.7h-6.6v7h6.6v15.5H814.2z"/>
				</g>
				<g>
					<path id="DejaVuSans-115_1_" d="M879.4-24.5V-33c-2.5,1.3-5.2,2.3-7.9,2.9c-2.7,0.7-5.6,1-8.5,1c-4.5,0-7.8-0.7-10-2
						c-2.2-1.4-3.3-3.4-3.3-6.2c0-2.1,0.8-3.7,2.4-4.9s4.8-2.3,9.6-3.4l3.1-0.7c6.4-1.4,10.9-3.3,13.6-5.8c2.7-2.5,4-6,4-10.4
						c0-5.1-2-9.1-6-12.1c-4-3-9.5-4.4-16.6-4.4c-2.9,0-6,0.3-9.2,0.9c-3.2,0.6-6.5,1.4-10,2.6v9.3c3.3-1.7,6.6-3,9.8-3.9
						c3.2-0.9,6.4-1.3,9.6-1.3c4.2,0,7.5,0.7,9.8,2.2c2.3,1.4,3.4,3.5,3.4,6.1c0,2.4-0.8,4.3-2.5,5.6c-1.6,1.3-5.2,2.6-10.8,3.8
						l-3.1,0.7c-5.6,1.2-9.6,3-12.1,5.4c-2.5,2.4-3.7,5.8-3.7,10c0,5.1,1.8,9.1,5.5,11.9c3.6,2.8,8.8,4.2,15.5,4.2
						c3.3,0,6.4-0.2,9.4-0.7C874.2-22.8,876.9-23.5,879.4-24.5z"/>
				</g>
			</g>
		</g>
	</g>
</g>
</svg>
